<svg width="28" height="29" viewBox="0 0 28 29" fill="none" xmlns="http://www.w3.org/2000/svg">
<path d="M3.5 0C2.57174 0 1.6815 0.381919 1.02513 1.06174C0.368749 1.74156 0 2.66359 0 3.625L0 25.375C0 26.3364 0.368749 27.2584 1.02513 27.9383C1.6815 28.6181 2.57174 29 3.5 29H24.5C25.4283 29 26.3185 28.6181 26.9749 27.9383C27.6313 27.2584 28 26.3364 28 25.375V3.625C28 2.66359 27.6313 1.74156 26.9749 1.06174C26.3185 0.381919 25.4283 0 24.5 0L3.5 0ZM4.375 9.0625H23.625C23.8571 9.0625 24.0796 9.15798 24.2437 9.32793C24.4078 9.49789 24.5 9.7284 24.5 9.96875C24.5 10.2091 24.4078 10.4396 24.2437 10.6096C24.0796 10.7795 23.8571 10.875 23.625 10.875H4.375C4.14294 10.875 3.92038 10.7795 3.75628 10.6096C3.59219 10.4396 3.5 10.2091 3.5 9.96875C3.5 9.7284 3.59219 9.49789 3.75628 9.32793C3.92038 9.15798 4.14294 9.0625 4.375 9.0625ZM7 15.4062C7 15.1659 7.09219 14.9354 7.25628 14.7654C7.42038 14.5955 7.64294 14.5 7.875 14.5H20.125C20.3571 14.5 20.5796 14.5955 20.7437 14.7654C20.9078 14.9354 21 15.1659 21 15.4062C21 15.6466 20.9078 15.8771 20.7437 16.0471C20.5796 16.217 20.3571 16.3125 20.125 16.3125H7.875C7.64294 16.3125 7.42038 16.217 7.25628 16.0471C7.09219 15.8771 7 15.6466 7 15.4062ZM10.5 20.8438C10.5 20.6034 10.5922 20.3729 10.7563 20.2029C10.9204 20.033 11.1429 19.9375 11.375 19.9375H16.625C16.8571 19.9375 17.0796 20.033 17.2437 20.2029C17.4078 20.3729 17.5 20.6034 17.5 20.8438C17.5 21.0841 17.4078 21.3146 17.2437 21.4846C17.0796 21.6545 16.8571 21.75 16.625 21.75H11.375C11.1429 21.75 10.9204 21.6545 10.7563 21.4846C10.5922 21.3146 10.5 21.0841 10.5 20.8438Z" fill="#151C47"/>
</svg>
